<mxfile host="app.diagrams.net" agent="Mozilla/5.0 (Windows NT 10.0; Win64; x64) AppleWebKit/537.36 (KHTML, like Gecko) Chrome/141.0.0.0 Safari/537.36" version="28.2.7">
  <diagram name="Страница — 1" id="r0T5hHGWYwauaiVI4BeF">
    <mxGraphModel dx="1678" dy="5565" grid="1" gridSize="10" guides="1" tooltips="1" connect="1" arrows="1" fold="1" page="1" pageScale="1" pageWidth="3300" pageHeight="4681" math="0" shadow="0">
      <root>
        <mxCell id="0" />
        <mxCell id="1" parent="0" />
        <mxCell id="zj-_4oBnJqKFaGweEe4j-18" style="edgeStyle=orthogonalEdgeStyle;rounded=0;orthogonalLoop=1;jettySize=auto;html=1;exitX=1;exitY=0.5;exitDx=0;exitDy=0;entryX=0;entryY=0.5;entryDx=0;entryDy=0;" parent="1" source="zj-_4oBnJqKFaGweEe4j-1" target="zj-_4oBnJqKFaGweEe4j-16" edge="1">
          <mxGeometry relative="1" as="geometry" />
        </mxCell>
        <mxCell id="zj-_4oBnJqKFaGweEe4j-1" value="Подтвердить e-mail" style="rounded=0;whiteSpace=wrap;html=1;" parent="1" vertex="1">
          <mxGeometry x="360" y="300" width="160" height="90" as="geometry" />
        </mxCell>
        <mxCell id="zj-_4oBnJqKFaGweEe4j-2" value="А1" style="text;html=1;whiteSpace=wrap;strokeColor=none;fillColor=none;align=center;verticalAlign=middle;rounded=0;" parent="1" vertex="1">
          <mxGeometry x="493" y="362" width="30" height="30" as="geometry" />
        </mxCell>
        <mxCell id="zj-_4oBnJqKFaGweEe4j-4" value="" style="endArrow=classic;html=1;rounded=0;" parent="1" edge="1">
          <mxGeometry width="50" height="50" relative="1" as="geometry">
            <mxPoint x="280" y="350" as="sourcePoint" />
            <mxPoint x="360" y="350" as="targetPoint" />
          </mxGeometry>
        </mxCell>
        <mxCell id="zj-_4oBnJqKFaGweEe4j-8" value="E-mail" style="text;html=1;whiteSpace=wrap;strokeColor=none;fillColor=none;align=center;verticalAlign=middle;rounded=0;" parent="1" vertex="1">
          <mxGeometry x="292" y="317" width="60" height="30" as="geometry" />
        </mxCell>
        <mxCell id="zj-_4oBnJqKFaGweEe4j-11" style="edgeStyle=orthogonalEdgeStyle;rounded=0;orthogonalLoop=1;jettySize=auto;html=1;exitX=0.5;exitY=1;exitDx=0;exitDy=0;entryX=0.5;entryY=0;entryDx=0;entryDy=0;" parent="1" source="zj-_4oBnJqKFaGweEe4j-9" target="zj-_4oBnJqKFaGweEe4j-1" edge="1">
          <mxGeometry relative="1" as="geometry" />
        </mxCell>
        <mxCell id="P5oURO3GOQmg3Gedjb14-16" style="edgeStyle=orthogonalEdgeStyle;rounded=0;orthogonalLoop=1;jettySize=auto;html=1;exitX=0.75;exitY=1;exitDx=0;exitDy=0;" parent="1" source="zj-_4oBnJqKFaGweEe4j-9" edge="1">
          <mxGeometry relative="1" as="geometry">
            <mxPoint x="1080" y="460" as="targetPoint" />
            <Array as="points">
              <mxPoint x="460" y="240" />
              <mxPoint x="1080" y="240" />
            </Array>
          </mxGeometry>
        </mxCell>
        <mxCell id="P5oURO3GOQmg3Gedjb14-18" style="edgeStyle=orthogonalEdgeStyle;rounded=0;orthogonalLoop=1;jettySize=auto;html=1;exitX=0.25;exitY=1;exitDx=0;exitDy=0;entryX=0.5;entryY=0;entryDx=0;entryDy=0;" parent="1" source="zj-_4oBnJqKFaGweEe4j-9" target="zj-_4oBnJqKFaGweEe4j-44" edge="1">
          <mxGeometry relative="1" as="geometry">
            <Array as="points">
              <mxPoint x="420" y="280" />
              <mxPoint x="1400" y="280" />
            </Array>
          </mxGeometry>
        </mxCell>
        <mxCell id="P5oURO3GOQmg3Gedjb14-21" style="edgeStyle=orthogonalEdgeStyle;rounded=0;orthogonalLoop=1;jettySize=auto;html=1;exitX=0.75;exitY=1;exitDx=0;exitDy=0;entryX=0.5;entryY=0;entryDx=0;entryDy=0;" parent="1" source="zj-_4oBnJqKFaGweEe4j-9" target="P5oURO3GOQmg3Gedjb14-2" edge="1">
          <mxGeometry relative="1" as="geometry">
            <Array as="points">
              <mxPoint x="460" y="200" />
              <mxPoint x="1720" y="200" />
            </Array>
          </mxGeometry>
        </mxCell>
        <mxCell id="zj-_4oBnJqKFaGweEe4j-9" value="Правила регистрации" style="text;html=1;whiteSpace=wrap;strokeColor=none;fillColor=none;align=center;verticalAlign=middle;rounded=0;" parent="1" vertex="1">
          <mxGeometry x="400" y="80" width="80" height="30" as="geometry" />
        </mxCell>
        <mxCell id="P5oURO3GOQmg3Gedjb14-13" style="edgeStyle=orthogonalEdgeStyle;rounded=0;orthogonalLoop=1;jettySize=auto;html=1;entryX=0.5;entryY=1;entryDx=0;entryDy=0;" parent="1" source="zj-_4oBnJqKFaGweEe4j-12" target="zj-_4oBnJqKFaGweEe4j-1" edge="1">
          <mxGeometry relative="1" as="geometry" />
        </mxCell>
        <mxCell id="P5oURO3GOQmg3Gedjb14-15" style="edgeStyle=orthogonalEdgeStyle;rounded=0;orthogonalLoop=1;jettySize=auto;html=1;exitX=0.5;exitY=0;exitDx=0;exitDy=0;entryX=0.5;entryY=1;entryDx=0;entryDy=0;" parent="1" source="zj-_4oBnJqKFaGweEe4j-12" target="zj-_4oBnJqKFaGweEe4j-16" edge="1">
          <mxGeometry relative="1" as="geometry">
            <Array as="points">
              <mxPoint x="460" y="760" />
              <mxPoint x="757" y="760" />
            </Array>
          </mxGeometry>
        </mxCell>
        <mxCell id="P5oURO3GOQmg3Gedjb14-17" style="edgeStyle=orthogonalEdgeStyle;rounded=0;orthogonalLoop=1;jettySize=auto;html=1;exitX=0.5;exitY=0;exitDx=0;exitDy=0;entryX=0.5;entryY=1;entryDx=0;entryDy=0;" parent="1" source="zj-_4oBnJqKFaGweEe4j-12" target="P5oURO3GOQmg3Gedjb14-1" edge="1">
          <mxGeometry relative="1" as="geometry">
            <Array as="points">
              <mxPoint x="460" y="761" />
              <mxPoint x="1080" y="761" />
            </Array>
          </mxGeometry>
        </mxCell>
        <mxCell id="P5oURO3GOQmg3Gedjb14-19" style="edgeStyle=orthogonalEdgeStyle;rounded=0;orthogonalLoop=1;jettySize=auto;html=1;exitX=0.5;exitY=0;exitDx=0;exitDy=0;entryX=0.5;entryY=1;entryDx=0;entryDy=0;" parent="1" source="zj-_4oBnJqKFaGweEe4j-12" target="zj-_4oBnJqKFaGweEe4j-44" edge="1">
          <mxGeometry relative="1" as="geometry">
            <Array as="points">
              <mxPoint x="460" y="820" />
              <mxPoint x="1400" y="820" />
            </Array>
          </mxGeometry>
        </mxCell>
        <mxCell id="P5oURO3GOQmg3Gedjb14-22" style="edgeStyle=orthogonalEdgeStyle;rounded=0;orthogonalLoop=1;jettySize=auto;html=1;exitX=0.75;exitY=0;exitDx=0;exitDy=0;entryX=0.5;entryY=1;entryDx=0;entryDy=0;" parent="1" source="zj-_4oBnJqKFaGweEe4j-12" target="P5oURO3GOQmg3Gedjb14-2" edge="1">
          <mxGeometry relative="1" as="geometry" />
        </mxCell>
        <mxCell id="P5oURO3GOQmg3Gedjb14-35" style="edgeStyle=orthogonalEdgeStyle;rounded=0;orthogonalLoop=1;jettySize=auto;html=1;exitX=0.75;exitY=0;exitDx=0;exitDy=0;entryX=0.75;entryY=1;entryDx=0;entryDy=0;" parent="1" source="zj-_4oBnJqKFaGweEe4j-12" target="P5oURO3GOQmg3Gedjb14-4" edge="1">
          <mxGeometry relative="1" as="geometry" />
        </mxCell>
        <mxCell id="zj-_4oBnJqKFaGweEe4j-12" value="Веб-клиент" style="text;html=1;whiteSpace=wrap;strokeColor=none;fillColor=none;align=center;verticalAlign=middle;rounded=0;" parent="1" vertex="1">
          <mxGeometry x="430" y="970" width="60" height="30" as="geometry" />
        </mxCell>
        <mxCell id="P5oURO3GOQmg3Gedjb14-34" style="edgeStyle=orthogonalEdgeStyle;rounded=0;orthogonalLoop=1;jettySize=auto;html=1;exitX=0.5;exitY=0;exitDx=0;exitDy=0;entryX=0.5;entryY=1;entryDx=0;entryDy=0;" parent="1" source="zj-_4oBnJqKFaGweEe4j-13" target="P5oURO3GOQmg3Gedjb14-4" edge="1">
          <mxGeometry relative="1" as="geometry" />
        </mxCell>
        <mxCell id="P5oURO3GOQmg3Gedjb14-43" style="edgeStyle=orthogonalEdgeStyle;rounded=0;orthogonalLoop=1;jettySize=auto;html=1;exitX=0.5;exitY=0;exitDx=0;exitDy=0;entryX=0.75;entryY=1;entryDx=0;entryDy=0;" parent="1" source="zj-_4oBnJqKFaGweEe4j-13" target="P5oURO3GOQmg3Gedjb14-2" edge="1">
          <mxGeometry relative="1" as="geometry" />
        </mxCell>
        <mxCell id="P5oURO3GOQmg3Gedjb14-45" style="edgeStyle=orthogonalEdgeStyle;rounded=0;orthogonalLoop=1;jettySize=auto;html=1;exitX=0.5;exitY=0;exitDx=0;exitDy=0;entryX=0.75;entryY=1;entryDx=0;entryDy=0;" parent="1" source="zj-_4oBnJqKFaGweEe4j-13" target="P5oURO3GOQmg3Gedjb14-1" edge="1">
          <mxGeometry relative="1" as="geometry">
            <Array as="points">
              <mxPoint x="2040" y="920" />
              <mxPoint x="1120" y="920" />
            </Array>
          </mxGeometry>
        </mxCell>
        <mxCell id="P5oURO3GOQmg3Gedjb14-46" style="edgeStyle=orthogonalEdgeStyle;rounded=0;orthogonalLoop=1;jettySize=auto;html=1;exitX=0.5;exitY=0;exitDx=0;exitDy=0;entryX=0.75;entryY=1;entryDx=0;entryDy=0;" parent="1" source="zj-_4oBnJqKFaGweEe4j-13" target="zj-_4oBnJqKFaGweEe4j-16" edge="1">
          <mxGeometry relative="1" as="geometry">
            <Array as="points">
              <mxPoint x="2040" y="900" />
              <mxPoint x="797" y="900" />
            </Array>
          </mxGeometry>
        </mxCell>
        <mxCell id="P5oURO3GOQmg3Gedjb14-47" style="edgeStyle=orthogonalEdgeStyle;rounded=0;orthogonalLoop=1;jettySize=auto;html=1;exitX=0.5;exitY=0;exitDx=0;exitDy=0;entryX=0.25;entryY=1;entryDx=0;entryDy=0;" parent="1" source="zj-_4oBnJqKFaGweEe4j-13" target="zj-_4oBnJqKFaGweEe4j-2" edge="1">
          <mxGeometry relative="1" as="geometry">
            <Array as="points">
              <mxPoint x="2040" y="940" />
              <mxPoint x="501" y="940" />
            </Array>
          </mxGeometry>
        </mxCell>
        <mxCell id="zj-_4oBnJqKFaGweEe4j-13" value="Сервер аутентификации" style="text;html=1;whiteSpace=wrap;strokeColor=none;fillColor=none;align=center;verticalAlign=middle;rounded=0;" parent="1" vertex="1">
          <mxGeometry x="1985" y="961" width="110" height="30" as="geometry" />
        </mxCell>
        <mxCell id="P5oURO3GOQmg3Gedjb14-14" style="edgeStyle=orthogonalEdgeStyle;rounded=0;orthogonalLoop=1;jettySize=auto;html=1;entryX=0.75;entryY=1;entryDx=0;entryDy=0;exitX=0.5;exitY=0;exitDx=0;exitDy=0;" parent="1" source="zj-_4oBnJqKFaGweEe4j-15" target="zj-_4oBnJqKFaGweEe4j-1" edge="1">
          <mxGeometry relative="1" as="geometry">
            <mxPoint x="1080" y="920" as="sourcePoint" />
            <Array as="points">
              <mxPoint x="1080" y="920" />
              <mxPoint x="1040" y="920" />
              <mxPoint x="1040" y="677" />
              <mxPoint x="480" y="677" />
            </Array>
          </mxGeometry>
        </mxCell>
        <mxCell id="zj-_4oBnJqKFaGweEe4j-15" value="Почтовая система" style="text;html=1;whiteSpace=wrap;strokeColor=none;fillColor=none;align=center;verticalAlign=middle;rounded=0;" parent="1" vertex="1">
          <mxGeometry x="1050" y="964" width="60" height="30" as="geometry" />
        </mxCell>
        <mxCell id="zj-_4oBnJqKFaGweEe4j-16" value="Получить согласие на обработку данных" style="rounded=0;whiteSpace=wrap;html=1;" parent="1" vertex="1">
          <mxGeometry x="677" y="400" width="160" height="90" as="geometry" />
        </mxCell>
        <mxCell id="zj-_4oBnJqKFaGweEe4j-17" value="А2" style="text;html=1;whiteSpace=wrap;strokeColor=none;fillColor=none;align=center;verticalAlign=middle;rounded=0;" parent="1" vertex="1">
          <mxGeometry x="810" y="462" width="30" height="30" as="geometry" />
        </mxCell>
        <mxCell id="zj-_4oBnJqKFaGweEe4j-19" value="&lt;b&gt;Подтверждённый email&lt;/b&gt;" style="text;html=1;whiteSpace=wrap;strokeColor=none;fillColor=none;align=center;verticalAlign=middle;rounded=0;" parent="1" vertex="1">
          <mxGeometry x="540" y="306" width="120" height="30" as="geometry" />
        </mxCell>
        <mxCell id="zj-_4oBnJqKFaGweEe4j-20" value="" style="endArrow=classic;html=1;rounded=0;" parent="1" edge="1">
          <mxGeometry width="50" height="50" relative="1" as="geometry">
            <mxPoint x="280" y="480" as="sourcePoint" />
            <mxPoint x="677" y="480" as="targetPoint" />
          </mxGeometry>
        </mxCell>
        <mxCell id="zj-_4oBnJqKFaGweEe4j-22" value="&lt;div&gt;Флаг согласия (галочка)&lt;/div&gt;" style="text;html=1;whiteSpace=wrap;strokeColor=none;fillColor=none;align=center;verticalAlign=middle;rounded=0;" parent="1" vertex="1">
          <mxGeometry x="280" y="447" width="90" height="30" as="geometry" />
        </mxCell>
        <mxCell id="zj-_4oBnJqKFaGweEe4j-42" style="edgeStyle=orthogonalEdgeStyle;rounded=0;orthogonalLoop=1;jettySize=auto;html=1;exitX=0.5;exitY=1;exitDx=0;exitDy=0;entryX=0.5;entryY=0;entryDx=0;entryDy=0;" parent="1" edge="1">
          <mxGeometry relative="1" as="geometry">
            <mxPoint x="759" y="119" as="sourcePoint" />
            <mxPoint x="759" y="400" as="targetPoint" />
            <Array as="points" />
          </mxGeometry>
        </mxCell>
        <mxCell id="P5oURO3GOQmg3Gedjb14-41" style="edgeStyle=orthogonalEdgeStyle;rounded=0;orthogonalLoop=1;jettySize=auto;html=1;exitX=0.75;exitY=1;exitDx=0;exitDy=0;entryX=0.75;entryY=0;entryDx=0;entryDy=0;" parent="1" source="zj-_4oBnJqKFaGweEe4j-23" target="P5oURO3GOQmg3Gedjb14-2" edge="1">
          <mxGeometry relative="1" as="geometry">
            <mxPoint x="1759.9999999999995" y="630" as="targetPoint" />
          </mxGeometry>
        </mxCell>
        <mxCell id="P5oURO3GOQmg3Gedjb14-42" style="edgeStyle=orthogonalEdgeStyle;rounded=0;orthogonalLoop=1;jettySize=auto;html=1;exitX=0.25;exitY=1;exitDx=0;exitDy=0;entryX=0.25;entryY=0;entryDx=0;entryDy=0;" parent="1" source="zj-_4oBnJqKFaGweEe4j-23" target="P5oURO3GOQmg3Gedjb14-4" edge="1">
          <mxGeometry relative="1" as="geometry">
            <mxPoint x="1999.9999999999995" y="700" as="targetPoint" />
            <Array as="points">
              <mxPoint x="735" y="320" />
              <mxPoint x="2000" y="320" />
            </Array>
          </mxGeometry>
        </mxCell>
        <mxCell id="zj-_4oBnJqKFaGweEe4j-23" value="Закон о персональных данных" style="text;html=1;whiteSpace=wrap;strokeColor=none;fillColor=none;align=center;verticalAlign=middle;rounded=0;" parent="1" vertex="1">
          <mxGeometry x="712" y="89" width="90" height="30" as="geometry" />
        </mxCell>
        <mxCell id="zj-_4oBnJqKFaGweEe4j-29" value="&lt;b&gt;Пользователь с согласием&lt;/b&gt;" style="text;html=1;whiteSpace=wrap;strokeColor=none;fillColor=none;align=center;verticalAlign=middle;rounded=0;" parent="1" vertex="1">
          <mxGeometry x="870" y="400" width="90" height="30" as="geometry" />
        </mxCell>
        <mxCell id="zj-_4oBnJqKFaGweEe4j-31" value="" style="endArrow=classic;html=1;rounded=0;entryX=-0.012;entryY=0.82;entryDx=0;entryDy=0;entryPerimeter=0;" parent="1" edge="1">
          <mxGeometry width="50" height="50" relative="1" as="geometry">
            <mxPoint x="284" y="540" as="sourcePoint" />
            <mxPoint x="999.962" y="542" as="targetPoint" />
          </mxGeometry>
        </mxCell>
        <mxCell id="Ih6cjKJVwRXH_O74F5gr-3" style="edgeStyle=orthogonalEdgeStyle;rounded=0;orthogonalLoop=1;jettySize=auto;html=1;entryX=0;entryY=0.75;entryDx=0;entryDy=0;" edge="1" parent="1">
          <mxGeometry relative="1" as="geometry">
            <mxPoint x="280" y="540" as="sourcePoint" />
            <mxPoint x="1960" y="775.5" as="targetPoint" />
            <Array as="points">
              <mxPoint x="780" y="540" />
              <mxPoint x="780" y="776" />
            </Array>
          </mxGeometry>
        </mxCell>
        <mxCell id="zj-_4oBnJqKFaGweEe4j-32" value="Логин" style="text;html=1;whiteSpace=wrap;strokeColor=none;fillColor=none;align=center;verticalAlign=middle;rounded=0;" parent="1" vertex="1">
          <mxGeometry x="284" y="507" width="60" height="30" as="geometry" />
        </mxCell>
        <mxCell id="zj-_4oBnJqKFaGweEe4j-33" value="Пароль" style="text;html=1;whiteSpace=wrap;strokeColor=none;fillColor=none;align=center;verticalAlign=middle;rounded=0;" parent="1" vertex="1">
          <mxGeometry x="280" y="582" width="60" height="30" as="geometry" />
        </mxCell>
        <mxCell id="zj-_4oBnJqKFaGweEe4j-34" style="edgeStyle=orthogonalEdgeStyle;rounded=0;orthogonalLoop=1;jettySize=auto;html=1;exitX=1;exitY=0.5;exitDx=0;exitDy=0;entryX=0;entryY=0.611;entryDx=0;entryDy=0;entryPerimeter=0;" parent="1" source="zj-_4oBnJqKFaGweEe4j-16" target="P5oURO3GOQmg3Gedjb14-1" edge="1">
          <mxGeometry relative="1" as="geometry">
            <mxPoint x="997.8654999999999" y="539.8399999999999" as="targetPoint" />
            <Array as="points">
              <mxPoint x="837" y="440" />
              <mxPoint x="934" y="440" />
              <mxPoint x="934" y="517" />
            </Array>
          </mxGeometry>
        </mxCell>
        <mxCell id="P5oURO3GOQmg3Gedjb14-25" style="edgeStyle=orthogonalEdgeStyle;rounded=0;orthogonalLoop=1;jettySize=auto;html=1;exitX=0.5;exitY=1;exitDx=0;exitDy=0;entryX=0.5;entryY=0;entryDx=0;entryDy=0;" parent="1" source="zj-_4oBnJqKFaGweEe4j-35" target="P5oURO3GOQmg3Gedjb14-4" edge="1">
          <mxGeometry relative="1" as="geometry" />
        </mxCell>
        <mxCell id="P5oURO3GOQmg3Gedjb14-48" style="edgeStyle=orthogonalEdgeStyle;rounded=0;orthogonalLoop=1;jettySize=auto;html=1;exitX=0.5;exitY=1;exitDx=0;exitDy=0;entryX=0.689;entryY=0.008;entryDx=0;entryDy=0;entryPerimeter=0;" parent="1" source="zj-_4oBnJqKFaGweEe4j-35" target="zj-_4oBnJqKFaGweEe4j-44" edge="1">
          <mxGeometry relative="1" as="geometry">
            <mxPoint x="1430" y="540" as="targetPoint" />
            <Array as="points">
              <mxPoint x="2040" y="280" />
              <mxPoint x="1430" y="280" />
            </Array>
          </mxGeometry>
        </mxCell>
        <mxCell id="zj-_4oBnJqKFaGweEe4j-35" value="Политика безопасности" style="text;html=1;whiteSpace=wrap;strokeColor=none;fillColor=none;align=center;verticalAlign=middle;rounded=0;" parent="1" vertex="1">
          <mxGeometry x="2000" y="130" width="80" height="30" as="geometry" />
        </mxCell>
        <mxCell id="zj-_4oBnJqKFaGweEe4j-52" style="edgeStyle=orthogonalEdgeStyle;rounded=0;orthogonalLoop=1;jettySize=auto;html=1;exitX=1;exitY=0.5;exitDx=0;exitDy=0;" parent="1" edge="1">
          <mxGeometry relative="1" as="geometry">
            <mxPoint x="2361" y="757" as="targetPoint" />
            <mxPoint x="2121" y="757" as="sourcePoint" />
          </mxGeometry>
        </mxCell>
        <mxCell id="P5oURO3GOQmg3Gedjb14-8" style="edgeStyle=orthogonalEdgeStyle;rounded=0;orthogonalLoop=1;jettySize=auto;html=1;exitX=1;exitY=0.5;exitDx=0;exitDy=0;entryX=0;entryY=0.5;entryDx=0;entryDy=0;" parent="1" source="zj-_4oBnJqKFaGweEe4j-44" target="P5oURO3GOQmg3Gedjb14-2" edge="1">
          <mxGeometry relative="1" as="geometry">
            <Array as="points">
              <mxPoint x="1480" y="600" />
              <mxPoint x="1560" y="600" />
              <mxPoint x="1560" y="682" />
            </Array>
          </mxGeometry>
        </mxCell>
        <mxCell id="zj-_4oBnJqKFaGweEe4j-44" value="Заполнить пароль" style="rounded=0;whiteSpace=wrap;html=1;" parent="1" vertex="1">
          <mxGeometry x="1320" y="547" width="160" height="90" as="geometry" />
        </mxCell>
        <mxCell id="zj-_4oBnJqKFaGweEe4j-45" value="А4" style="text;html=1;whiteSpace=wrap;strokeColor=none;fillColor=none;align=center;verticalAlign=middle;rounded=0;" parent="1" vertex="1">
          <mxGeometry x="1449" y="604" width="30" height="30" as="geometry" />
        </mxCell>
        <mxCell id="zj-_4oBnJqKFaGweEe4j-47" value="" style="endArrow=classic;html=1;rounded=0;entryX=-0.012;entryY=0.82;entryDx=0;entryDy=0;entryPerimeter=0;" parent="1" edge="1">
          <mxGeometry width="50" height="50" relative="1" as="geometry">
            <mxPoint x="280" y="619" as="sourcePoint" />
            <mxPoint x="1320.002" y="621" as="targetPoint" />
          </mxGeometry>
        </mxCell>
        <mxCell id="zj-_4oBnJqKFaGweEe4j-48" value="Поле &quot;О себе&quot;" style="text;html=1;whiteSpace=wrap;strokeColor=none;fillColor=none;align=center;verticalAlign=middle;rounded=0;" parent="1" vertex="1">
          <mxGeometry x="282.5" y="680" width="85" height="30" as="geometry" />
        </mxCell>
        <mxCell id="zj-_4oBnJqKFaGweEe4j-51" value="Авторизованная сессия" style="text;html=1;whiteSpace=wrap;strokeColor=none;fillColor=none;align=center;verticalAlign=middle;rounded=0;" parent="1" vertex="1">
          <mxGeometry x="2120" y="724" width="210" height="30" as="geometry" />
        </mxCell>
        <mxCell id="zj-_4oBnJqKFaGweEe4j-53" value="&lt;b&gt;Логин для связки&lt;/b&gt;" style="text;html=1;whiteSpace=wrap;strokeColor=none;fillColor=none;align=center;verticalAlign=middle;rounded=0;" parent="1" vertex="1">
          <mxGeometry x="1190" y="477" width="70" height="30" as="geometry" />
        </mxCell>
        <mxCell id="P5oURO3GOQmg3Gedjb14-1" value="Заполнить логин" style="rounded=0;whiteSpace=wrap;html=1;" parent="1" vertex="1">
          <mxGeometry x="1000" y="462" width="160" height="90" as="geometry" />
        </mxCell>
        <mxCell id="zj-_4oBnJqKFaGweEe4j-26" value="А3" style="text;html=1;whiteSpace=wrap;strokeColor=none;fillColor=none;align=center;verticalAlign=middle;rounded=0;" parent="1" vertex="1">
          <mxGeometry x="1130" y="521" width="30" height="30" as="geometry" />
        </mxCell>
        <mxCell id="P5oURO3GOQmg3Gedjb14-9" style="edgeStyle=orthogonalEdgeStyle;rounded=0;orthogonalLoop=1;jettySize=auto;html=1;exitX=1;exitY=0.5;exitDx=0;exitDy=0;entryX=0;entryY=0.5;entryDx=0;entryDy=0;" parent="1" source="P5oURO3GOQmg3Gedjb14-2" target="P5oURO3GOQmg3Gedjb14-4" edge="1">
          <mxGeometry relative="1" as="geometry" />
        </mxCell>
        <mxCell id="P5oURO3GOQmg3Gedjb14-2" value="Добавить информацию &quot;О себе&quot;" style="rounded=0;whiteSpace=wrap;html=1;" parent="1" vertex="1">
          <mxGeometry x="1640" y="637" width="160" height="90" as="geometry" />
        </mxCell>
        <mxCell id="P5oURO3GOQmg3Gedjb14-3" value="А5" style="text;html=1;whiteSpace=wrap;strokeColor=none;fillColor=none;align=center;verticalAlign=middle;rounded=0;" parent="1" vertex="1">
          <mxGeometry x="1769" y="694" width="30" height="30" as="geometry" />
        </mxCell>
        <mxCell id="P5oURO3GOQmg3Gedjb14-4" value="Авторизовать пользователя" style="rounded=0;whiteSpace=wrap;html=1;" parent="1" vertex="1">
          <mxGeometry x="1960" y="710" width="160" height="90" as="geometry" />
        </mxCell>
        <mxCell id="P5oURO3GOQmg3Gedjb14-5" value="А6" style="text;html=1;whiteSpace=wrap;strokeColor=none;fillColor=none;align=center;verticalAlign=middle;rounded=0;" parent="1" vertex="1">
          <mxGeometry x="2089" y="767" width="30" height="30" as="geometry" />
        </mxCell>
        <mxCell id="P5oURO3GOQmg3Gedjb14-7" style="edgeStyle=orthogonalEdgeStyle;rounded=0;orthogonalLoop=1;jettySize=auto;html=1;exitX=1;exitY=0;exitDx=0;exitDy=0;" parent="1" source="zj-_4oBnJqKFaGweEe4j-26" edge="1">
          <mxGeometry relative="1" as="geometry">
            <mxPoint x="1320" y="600" as="targetPoint" />
            <Array as="points">
              <mxPoint x="1160" y="520" />
              <mxPoint x="1240" y="520" />
              <mxPoint x="1240" y="600" />
            </Array>
          </mxGeometry>
        </mxCell>
        <mxCell id="P5oURO3GOQmg3Gedjb14-10" value="&lt;b&gt;Учётные данные&lt;/b&gt;" style="text;html=1;whiteSpace=wrap;strokeColor=none;fillColor=none;align=center;verticalAlign=middle;rounded=0;" parent="1" vertex="1">
          <mxGeometry x="1510" y="552" width="60" height="30" as="geometry" />
        </mxCell>
        <mxCell id="P5oURO3GOQmg3Gedjb14-11" value="&lt;b&gt;Полный профиль&lt;/b&gt;" style="text;html=1;whiteSpace=wrap;strokeColor=none;fillColor=none;align=center;verticalAlign=middle;rounded=0;" parent="1" vertex="1">
          <mxGeometry x="1820" y="637" width="60" height="30" as="geometry" />
        </mxCell>
        <mxCell id="P5oURO3GOQmg3Gedjb14-12" value="" style="endArrow=classic;html=1;rounded=0;entryX=-0.012;entryY=0.82;entryDx=0;entryDy=0;entryPerimeter=0;" parent="1" edge="1">
          <mxGeometry width="50" height="50" relative="1" as="geometry">
            <mxPoint x="280" y="720" as="sourcePoint" />
            <mxPoint x="1640.002" y="722" as="targetPoint" />
          </mxGeometry>
        </mxCell>
        <mxCell id="P5oURO3GOQmg3Gedjb14-44" style="edgeStyle=orthogonalEdgeStyle;rounded=0;orthogonalLoop=1;jettySize=auto;html=1;exitX=0.5;exitY=0;exitDx=0;exitDy=0;entryX=0.697;entryY=0.968;entryDx=0;entryDy=0;entryPerimeter=0;" parent="1" source="zj-_4oBnJqKFaGweEe4j-13" target="zj-_4oBnJqKFaGweEe4j-44" edge="1">
          <mxGeometry relative="1" as="geometry">
            <Array as="points">
              <mxPoint x="2040" y="870" />
              <mxPoint x="1432" y="870" />
            </Array>
          </mxGeometry>
        </mxCell>
        <mxCell id="Ih6cjKJVwRXH_O74F5gr-1" style="edgeStyle=orthogonalEdgeStyle;rounded=0;orthogonalLoop=1;jettySize=auto;html=1;entryX=0;entryY=0.889;entryDx=0;entryDy=0;entryPerimeter=0;" edge="1" parent="1" target="P5oURO3GOQmg3Gedjb14-4">
          <mxGeometry relative="1" as="geometry">
            <mxPoint x="280" y="620" as="sourcePoint" />
            <Array as="points">
              <mxPoint x="1160" y="620" />
              <mxPoint x="1160" y="790" />
            </Array>
          </mxGeometry>
        </mxCell>
        <mxCell id="Ih6cjKJVwRXH_O74F5gr-4" value="Обеспечивать регистрацию и авторизацию пользователя" style="rounded=0;whiteSpace=wrap;html=1;" vertex="1" parent="1">
          <mxGeometry x="800" y="-360" width="280" height="130" as="geometry" />
        </mxCell>
        <mxCell id="Ih6cjKJVwRXH_O74F5gr-5" value="А0" style="text;html=1;whiteSpace=wrap;strokeColor=none;fillColor=none;align=center;verticalAlign=middle;rounded=0;" vertex="1" parent="1">
          <mxGeometry x="1050" y="-250" width="30" height="20" as="geometry" />
        </mxCell>
        <mxCell id="Ih6cjKJVwRXH_O74F5gr-6" value="" style="endArrow=classic;html=1;rounded=0;" edge="1" parent="1">
          <mxGeometry width="50" height="50" relative="1" as="geometry">
            <mxPoint x="721" y="-351" as="sourcePoint" />
            <mxPoint x="801" y="-351" as="targetPoint" />
          </mxGeometry>
        </mxCell>
        <mxCell id="Ih6cjKJVwRXH_O74F5gr-7" value="E-mail" style="text;html=1;whiteSpace=wrap;strokeColor=none;fillColor=none;align=center;verticalAlign=middle;rounded=0;" vertex="1" parent="1">
          <mxGeometry x="733" y="-375" width="60" height="30" as="geometry" />
        </mxCell>
        <mxCell id="Ih6cjKJVwRXH_O74F5gr-8" value="&lt;div&gt;Флаг согласия (галочка)&lt;/div&gt;" style="text;html=1;whiteSpace=wrap;strokeColor=none;fillColor=none;align=center;verticalAlign=middle;rounded=0;" vertex="1" parent="1">
          <mxGeometry x="710" y="-350" width="90" height="30" as="geometry" />
        </mxCell>
        <mxCell id="Ih6cjKJVwRXH_O74F5gr-9" value="Логин" style="text;html=1;whiteSpace=wrap;strokeColor=none;fillColor=none;align=center;verticalAlign=middle;rounded=0;" vertex="1" parent="1">
          <mxGeometry x="727" y="-324.5" width="60" height="30" as="geometry" />
        </mxCell>
        <mxCell id="Ih6cjKJVwRXH_O74F5gr-10" value="Пароль" style="text;html=1;whiteSpace=wrap;strokeColor=none;fillColor=none;align=center;verticalAlign=middle;rounded=0;" vertex="1" parent="1">
          <mxGeometry x="729" y="-306" width="60" height="30" as="geometry" />
        </mxCell>
        <mxCell id="Ih6cjKJVwRXH_O74F5gr-11" value="Поле &quot;О себе&quot;" style="text;html=1;whiteSpace=wrap;strokeColor=none;fillColor=none;align=center;verticalAlign=middle;rounded=0;" vertex="1" parent="1">
          <mxGeometry x="714" y="-282" width="85" height="30" as="geometry" />
        </mxCell>
        <mxCell id="Ih6cjKJVwRXH_O74F5gr-12" value="" style="endArrow=classic;html=1;rounded=0;" edge="1" parent="1">
          <mxGeometry width="50" height="50" relative="1" as="geometry">
            <mxPoint x="720" y="-320" as="sourcePoint" />
            <mxPoint x="800" y="-320" as="targetPoint" />
          </mxGeometry>
        </mxCell>
        <mxCell id="Ih6cjKJVwRXH_O74F5gr-13" value="" style="endArrow=classic;html=1;rounded=0;" edge="1" parent="1">
          <mxGeometry width="50" height="50" relative="1" as="geometry">
            <mxPoint x="720" y="-281.28" as="sourcePoint" />
            <mxPoint x="800" y="-281.28" as="targetPoint" />
          </mxGeometry>
        </mxCell>
        <mxCell id="Ih6cjKJVwRXH_O74F5gr-14" value="" style="endArrow=classic;html=1;rounded=0;" edge="1" parent="1">
          <mxGeometry width="50" height="50" relative="1" as="geometry">
            <mxPoint x="722" y="-259" as="sourcePoint" />
            <mxPoint x="802" y="-259" as="targetPoint" />
          </mxGeometry>
        </mxCell>
        <mxCell id="Ih6cjKJVwRXH_O74F5gr-15" value="" style="endArrow=classic;html=1;rounded=0;" edge="1" parent="1">
          <mxGeometry width="50" height="50" relative="1" as="geometry">
            <mxPoint x="721" y="-300" as="sourcePoint" />
            <mxPoint x="801" y="-300" as="targetPoint" />
          </mxGeometry>
        </mxCell>
        <mxCell id="Ih6cjKJVwRXH_O74F5gr-16" value="Правила регистрации" style="text;html=1;whiteSpace=wrap;strokeColor=none;fillColor=none;align=center;verticalAlign=middle;rounded=0;" vertex="1" parent="1">
          <mxGeometry x="800" y="-550" width="80" height="30" as="geometry" />
        </mxCell>
        <mxCell id="Ih6cjKJVwRXH_O74F5gr-17" value="Закон о персональных данных" style="text;html=1;whiteSpace=wrap;strokeColor=none;fillColor=none;align=center;verticalAlign=middle;rounded=0;" vertex="1" parent="1">
          <mxGeometry x="899" y="-555" width="90" height="30" as="geometry" />
        </mxCell>
        <mxCell id="Ih6cjKJVwRXH_O74F5gr-18" value="Политика безопасности" style="text;html=1;whiteSpace=wrap;strokeColor=none;fillColor=none;align=center;verticalAlign=middle;rounded=0;" vertex="1" parent="1">
          <mxGeometry x="1000" y="-550" width="80" height="30" as="geometry" />
        </mxCell>
        <mxCell id="Ih6cjKJVwRXH_O74F5gr-19" style="edgeStyle=orthogonalEdgeStyle;rounded=0;orthogonalLoop=1;jettySize=auto;html=1;exitX=1;exitY=0.5;exitDx=0;exitDy=0;" edge="1" parent="1">
          <mxGeometry relative="1" as="geometry">
            <mxPoint x="1200" y="-279" as="targetPoint" />
            <mxPoint x="1081" y="-279.21000000000004" as="sourcePoint" />
          </mxGeometry>
        </mxCell>
        <mxCell id="Ih6cjKJVwRXH_O74F5gr-20" value="Авторизованная сессия" style="text;html=1;whiteSpace=wrap;strokeColor=none;fillColor=none;align=center;verticalAlign=middle;rounded=0;" vertex="1" parent="1">
          <mxGeometry x="1080" y="-312.21" width="120" height="30" as="geometry" />
        </mxCell>
        <mxCell id="Ih6cjKJVwRXH_O74F5gr-21" value="Веб-клиент" style="text;html=1;whiteSpace=wrap;strokeColor=none;fillColor=none;align=center;verticalAlign=middle;rounded=0;" vertex="1" parent="1">
          <mxGeometry x="810" y="-117" width="60" height="30" as="geometry" />
        </mxCell>
        <mxCell id="Ih6cjKJVwRXH_O74F5gr-22" value="Сервер аутентификации" style="text;html=1;whiteSpace=wrap;strokeColor=none;fillColor=none;align=center;verticalAlign=middle;rounded=0;" vertex="1" parent="1">
          <mxGeometry x="988" y="-117" width="110" height="30" as="geometry" />
        </mxCell>
        <mxCell id="Ih6cjKJVwRXH_O74F5gr-31" style="edgeStyle=orthogonalEdgeStyle;rounded=0;orthogonalLoop=1;jettySize=auto;html=1;exitX=0.5;exitY=0;exitDx=0;exitDy=0;entryX=0.5;entryY=1;entryDx=0;entryDy=0;" edge="1" parent="1" source="Ih6cjKJVwRXH_O74F5gr-23" target="Ih6cjKJVwRXH_O74F5gr-4">
          <mxGeometry relative="1" as="geometry" />
        </mxCell>
        <mxCell id="Ih6cjKJVwRXH_O74F5gr-23" value="Почтовая система" style="text;html=1;whiteSpace=wrap;strokeColor=none;fillColor=none;align=center;verticalAlign=middle;rounded=0;" vertex="1" parent="1">
          <mxGeometry x="910" y="-117" width="60" height="30" as="geometry" />
        </mxCell>
        <mxCell id="Ih6cjKJVwRXH_O74F5gr-24" style="edgeStyle=orthogonalEdgeStyle;rounded=0;orthogonalLoop=1;jettySize=auto;html=1;exitX=0.5;exitY=1;exitDx=0;exitDy=0;entryX=0.141;entryY=0.017;entryDx=0;entryDy=0;entryPerimeter=0;" edge="1" parent="1" source="Ih6cjKJVwRXH_O74F5gr-16" target="Ih6cjKJVwRXH_O74F5gr-4">
          <mxGeometry relative="1" as="geometry" />
        </mxCell>
        <mxCell id="Ih6cjKJVwRXH_O74F5gr-27" style="edgeStyle=orthogonalEdgeStyle;rounded=0;orthogonalLoop=1;jettySize=auto;html=1;exitX=0.5;exitY=1;exitDx=0;exitDy=0;entryX=0.858;entryY=0.01;entryDx=0;entryDy=0;entryPerimeter=0;" edge="1" parent="1" source="Ih6cjKJVwRXH_O74F5gr-18" target="Ih6cjKJVwRXH_O74F5gr-4">
          <mxGeometry relative="1" as="geometry" />
        </mxCell>
        <mxCell id="Ih6cjKJVwRXH_O74F5gr-30" style="edgeStyle=orthogonalEdgeStyle;rounded=0;orthogonalLoop=1;jettySize=auto;html=1;exitX=0.5;exitY=0;exitDx=0;exitDy=0;entryX=0.144;entryY=0.991;entryDx=0;entryDy=0;entryPerimeter=0;" edge="1" parent="1" source="Ih6cjKJVwRXH_O74F5gr-21" target="Ih6cjKJVwRXH_O74F5gr-4">
          <mxGeometry relative="1" as="geometry" />
        </mxCell>
        <mxCell id="Ih6cjKJVwRXH_O74F5gr-35" style="edgeStyle=orthogonalEdgeStyle;rounded=0;orthogonalLoop=1;jettySize=auto;html=1;exitX=0.5;exitY=0;exitDx=0;exitDy=0;entryX=0.867;entryY=1;entryDx=0;entryDy=0;entryPerimeter=0;" edge="1" parent="1" source="Ih6cjKJVwRXH_O74F5gr-22" target="Ih6cjKJVwRXH_O74F5gr-4">
          <mxGeometry relative="1" as="geometry" />
        </mxCell>
        <mxCell id="Ih6cjKJVwRXH_O74F5gr-38" style="edgeStyle=orthogonalEdgeStyle;rounded=0;orthogonalLoop=1;jettySize=auto;html=1;exitX=0.5;exitY=1;exitDx=0;exitDy=0;entryX=0.512;entryY=0.004;entryDx=0;entryDy=0;entryPerimeter=0;" edge="1" parent="1" source="Ih6cjKJVwRXH_O74F5gr-17" target="Ih6cjKJVwRXH_O74F5gr-4">
          <mxGeometry relative="1" as="geometry" />
        </mxCell>
      </root>
    </mxGraphModel>
  </diagram>
</mxfile>
